<?xml version="1.0" standalone="no"?>
<!DOCTYPE svg PUBLIC "-//W3C//DTD SVG 20010904//EN"
 "http://www.w3.org/TR/2001/REC-SVG-20010904/DTD/svg10.dtd">
<svg version="1.0" xmlns="http://www.w3.org/2000/svg"
 width="800.000000pt" height="450.000000pt" viewBox="0 0 800.000000 450.000000"
 preserveAspectRatio="xMidYMid meet">

<g transform="translate(0.000000,450.000000) scale(0.100000,-0.100000)"
fill="#000000" stroke="none">
<path d="M0 2250 l0 -2250 4000 0 4000 0 0 2250 0 2250 -4000 0 -4000 0 0
-2250z m2101 644 c72 -20 139 -76 165 -136 15 -36 19 -84 23 -293 6 -259 7
-263 54 -326 13 -18 16 -32 11 -42 -16 -26 -139 -127 -156 -127 -21 0 -70 41
-87 74 -8 14 -18 26 -21 26 -4 0 -37 -20 -74 -45 -75 -50 -111 -60 -211 -60
-163 0 -254 105 -243 281 4 53 12 83 33 123 54 98 141 143 330 169 l120 17 3
46 c4 60 -11 95 -50 120 -24 15 -44 19 -75 16 -58 -6 -91 -30 -115 -84 l-20
-45 -81 7 c-45 3 -90 9 -99 11 -40 12 -7 120 54 183 97 99 270 132 439 85z
m2196 1 c66 -20 130 -69 157 -120 19 -37 21 -62 26 -290 4 -216 8 -255 23
-287 11 -20 25 -42 33 -49 32 -26 15 -62 -56 -121 -37 -32 -77 -58 -88 -58
-13 0 -38 20 -64 50 -24 27 -47 50 -52 50 -4 0 -24 -14 -44 -31 -61 -53 -116
-73 -212 -73 -104 -1 -167 26 -216 91 -60 79 -64 224 -8 320 54 93 139 135
324 161 l125 18 3 31 c9 95 -44 158 -127 150 -56 -6 -91 -32 -116 -86 l-20
-43 -85 7 c-95 8 -120 17 -120 44 0 31 60 139 93 167 100 85 276 113 424 69z
m-1269 -9 c33 -18 75 -62 95 -100 l14 -30 26 41 c32 50 74 81 134 99 59 18 87
18 154 -2 37 -11 66 -28 91 -55 64 -67 68 -95 68 -495 0 -409 11 -374 -115
-374 -125 0 -115 -28 -115 326 0 324 -5 360 -48 383 -63 34 -145 -9 -162 -84
-5 -22 -10 -167 -10 -322 0 -269 -1 -283 -19 -293 -28 -14 -184 -13 -199 2 -9
9 -12 92 -12 310 0 374 -7 398 -110 398 -50 0 -83 -29 -99 -86 -7 -24 -11
-151 -11 -324 0 -209 -3 -289 -12 -298 -15 -15 -171 -16 -199 -2 -18 10 -19
26 -19 445 0 238 3 440 6 449 5 13 24 16 104 16 111 0 110 1 110 -83 l1 -52
19 37 c26 48 85 95 135 107 50 12 138 5 173 -13z m2897 -10 c71 -32 120 -78
159 -150 123 -220 90 -529 -72 -677 -76 -69 -143 -92 -257 -87 -76 3 -98 8
-143 33 -136 74 -212 231 -212 439 1 242 108 418 283 462 71 18 178 10 242
-20z m929 0 c54 -32 83 -72 101 -143 20 -75 22 -732 3 -751 -15 -15 -171 -16
-199 -2 -18 10 -19 24 -19 308 0 167 -4 313 -10 333 -14 50 -43 74 -90 74 -47
0 -94 -40 -112 -94 -6 -22 -13 -148 -15 -321 -3 -174 -9 -290 -15 -297 -16
-20 -182 -17 -202 3 -14 14 -16 68 -16 448 0 359 2 436 14 445 9 8 47 11 107
9 l94 -3 5 -70 5 -70 22 42 c27 50 78 93 130 110 55 18 148 8 197 -21z m-1559
-71 l-1 -80 -154 -219 c-85 -120 -154 -221 -153 -225 2 -3 35 -9 75 -12 90 -8
173 -31 219 -62 33 -22 34 -26 37 -92 4 -92 -2 -115 -31 -115 -13 0 -27 4 -33
9 -18 17 -148 52 -219 58 -88 7 -196 -10 -282 -44 -92 -37 -98 -31 -97 89 l0
94 55 80 c30 43 108 154 172 245 64 92 117 170 117 173 0 3 -70 6 -155 6
l-155 0 0 83 c0 46 3 87 7 90 4 4 140 6 302 5 l296 -3 0 -80z m-170 -890 c47
-14 54 -19 59 -48 5 -30 -3 -101 -19 -172 -22 -92 -148 -285 -186 -285 -14 0
-11 38 6 69 22 44 53 140 68 213 18 85 9 108 -53 127 -37 12 -70 13 -190 4
-80 -6 -147 -9 -150 -6 -12 12 66 62 123 78 34 9 73 21 87 25 44 14 199 11
255 -5z m-2485 -185 c41 -17 84 -35 95 -40 60 -28 265 -90 405 -124 313 -74
713 -93 1019 -48 85 13 158 25 161 27 4 2 53 14 111 26 57 11 120 27 139 34
19 7 80 28 135 45 55 18 105 36 110 40 6 4 27 13 48 20 43 13 67 2 67 -31 0
-45 -257 -186 -476 -262 -126 -44 -183 -59 -359 -94 -105 -21 -554 -24 -665
-5 -384 67 -663 185 -960 406 -124 91 -155 123 -140 141 10 11 31 4 123 -45
62 -32 146 -73 187 -90z"/>
<path d="M1937 2406 c-93 -25 -142 -85 -134 -165 13 -128 147 -148 215 -32 21
35 27 61 30 128 l5 83 -34 -1 c-19 0 -56 -6 -82 -13z"/>
<path d="M4130 2404 c-79 -21 -121 -66 -128 -135 -6 -63 16 -112 59 -129 99
-42 198 81 187 232 -3 40 -5 43 -33 45 -16 1 -55 -5 -85 -13z"/>
<path d="M5724 2718 c-12 -5 -32 -29 -45 -51 -23 -40 -24 -50 -24 -227 0 -175
1 -188 24 -233 32 -65 73 -86 128 -66 51 20 79 65 93 151 14 83 9 268 -10 341
-21 81 -96 120 -166 85z"/>
</g>
</svg>
